<?xml version="1.0" standalone="no"?>
<!DOCTYPE svg PUBLIC "-//W3C//DTD SVG 20010904//EN"
 "http://www.w3.org/TR/2001/REC-SVG-20010904/DTD/svg10.dtd">
<svg version="1.0" xmlns="http://www.w3.org/2000/svg"
 width="354.000000pt" height="354.000000pt" viewBox="0 0 354.000000 354.000000"
 preserveAspectRatio="xMidYMid meet">
<metadata>
Created by potrace 1.14, written by Peter Selinger 2001-2017
</metadata>
<g transform="translate(0.000000,354.000000) scale(0.100000,-0.100000)"
fill="#000000" stroke="none">
<path d="M1525 3083 c-213 -47 -328 -91 -462 -178 -198 -129 -341 -320 -403
-538 l-16 -58 -65 -23 c-137 -48 -247 -115 -342 -210 -98 -96 -164 -204 -203
-331 -29 -94 -27 -307 5 -401 140 -427 643 -672 1119 -547 34 9 62 19 62 22 0
3 -46 30 -103 60 -111 58 -267 150 -267 157 0 2 17 -3 38 -12 555 -243 1201
-421 1667 -459 77 -7 81 -8 113 -46 49 -57 85 -72 168 -72 85 0 139 26 180 84
64 93 30 204 -81 261 -82 43 -211 20 -263 -47 -25 -32 -41 -31 -200 1 -660
133 -1360 402 -1782 684 -49 33 -59 36 -90 27 -56 -15 -169 -3 -219 22 -143
73 -186 239 -95 359 55 71 164 115 265 107 100 -9 201 -79 236 -164 14 -33 20
-108 12 -140 -8 -29 195 -159 426 -274 461 -229 987 -395 1505 -474 148 -22
507 -25 590 -4 80 20 155 58 185 92 20 25 25 41 25 88 0 48 -6 67 -36 116 -19
33 -56 80 -82 106 l-47 45 32 60 c55 99 77 185 77 299 0 55 -6 125 -14 155
-50 207 -207 389 -422 490 -70 33 -195 67 -265 73 -40 4 -47 8 -59 35 -123
294 -368 508 -683 597 -47 13 -102 27 -121 31 -40 8 -355 13 -385 7z m84 -473
c95 -48 161 -185 161 -336 0 -139 -52 -238 -150 -286 -126 -62 -231 -35 -294
76 -46 80 -62 229 -36 327 27 100 97 195 165 225 44 19 110 17 154 -6z m568
-1 c99 -48 166 -188 164 -341 -2 -137 -55 -254 -134 -295 -52 -27 -135 -21
-204 13 -110 55 -160 159 -150 313 14 240 167 386 324 310z m-1049 -461 c52
-25 121 -92 155 -152 67 -114 76 -251 23 -321 -61 -79 -188 -102 -274 -48
-141 87 -211 316 -138 449 49 90 140 118 234 72z m1531 2 c158 -90 114 -409
-73 -524 -39 -25 -58 -30 -105 -29 -89 2 -165 48 -191 118 -18 48 -14 134 11
200 73 195 236 303 358 235z m-699 -216 c158 -33 232 -87 245 -179 14 -94 38
-130 132 -200 167 -124 72 -282 -212 -355 -138 -35 -191 -36 -281 -5 -245 85
-634 254 -634 277 0 18 46 70 80 91 76 47 114 104 124 185 3 30 14 64 24 77
73 98 322 150 522 109z m930 -1266 c33 -36 24 -73 -23 -93 -42 -17 -82 -2 -96
35 -22 65 70 110 119 58z"/>
<path d="M474 1804 c-82 -28 -112 -119 -58 -177 84 -91 234 -42 234 75 0 78
-91 131 -176 102z"/>
</g>
</svg>
